<!DOCTYPE svg PUBLIC "-//W3C//DTD SVG 1.1//EN" "http://www.w3.org/Graphics/SVG/1.1/DTD/svg11.dtd">
<!-- Uploaded to: SVG Repo, www.svgrepo.com, Transformed by: SVG Repo Mixer Tools -->
<svg height="800px" width="800px" version="1.1" id="Layer_1" xmlns="http://www.w3.org/2000/svg" xmlns:xlink="http://www.w3.org/1999/xlink" viewBox="0 0 511.994 511.994" xml:space="preserve" fill="#000000">
<g id="SVGRepo_bgCarrier" stroke-width="0"/>
<g id="SVGRepo_tracerCarrier" stroke-linecap="round" stroke-linejoin="round"/>
<g id="SVGRepo_iconCarrier"> <g> <path style="fill:#ECF1F1;" d="M240.893,68.046L70.618,238.321v256.018c0,9.754,7.91,17.655,17.655,17.655h335.448 c9.754,0,17.655-7.901,17.655-17.655V238.321L271.101,68.046C262.759,59.704,249.235,59.704,240.893,68.046"/> <polygon style="fill:#25B99A;" points="300.136,211.838 300.136,308.941 211.86,308.941 211.86,211.838 158.895,211.838 158.895,459.01 211.86,459.01 211.86,361.907 300.136,361.907 300.136,459.01 353.101,459.01 353.101,211.838 "/> <path style="fill:#556080;" d="M493.517,228.668L271.106,6.257c-8.342-8.342-21.875-8.342-30.217,0L18.478,228.668 c-8.157,8.157-9.446,21.513-1.907,30.252c8.616,9.975,23.322,10.125,32.132,1.315L240.889,68.05c8.342-8.342,21.875-8.342,30.217,0 l192.185,192.185c8.81,8.81,23.525,8.66,32.132-1.315C502.962,250.18,501.673,236.824,493.517,228.668"/> </g> </g>
</svg>