<!DOCTYPE svg PUBLIC "-//W3C//DTD SVG 1.1//EN" "http://www.w3.org/Graphics/SVG/1.1/DTD/svg11.dtd">
<!-- Uploaded to: SVG Repo, www.svgrepo.com, Transformed by: SVG Repo Mixer Tools -->
<svg height="800px" width="800px" version="1.1" id="Layer_1" xmlns="http://www.w3.org/2000/svg" xmlns:xlink="http://www.w3.org/1999/xlink" viewBox="0 0 512 512" xml:space="preserve" fill="#000000">
<g id="SVGRepo_bgCarrier" stroke-width="0"/>
<g id="SVGRepo_tracerCarrier" stroke-linecap="round" stroke-linejoin="round"/>
<g id="SVGRepo_iconCarrier"> <g> <path style="fill:#F7F7F7;" d="M512,39.724C512,17.788,494.212,0,472.276,0s-39.724,17.788-39.724,39.724 s17.788,39.724,39.724,39.724S512,61.661,512,39.724"/> <g> <path style="fill:#FFC0CB;" d="M432.552,39.724c0-8.166,2.481-15.757,6.709-22.069H0v44.138h439.261 C435.032,55.481,432.552,47.89,432.552,39.724"/> <path style="fill:#FFC0CB;" d="M26.483,123.586h397.241c14.627,0,26.483,11.855,26.483,26.483v335.448 c0,14.627-11.855,26.483-26.483,26.483H26.483C11.855,512,0,500.145,0,485.517V150.069C0,135.442,11.855,123.586,26.483,123.586"/> </g> <polygon style="fill:#F7F7F7;" points="300.138,158.897 300.138,291.31 158.897,291.31 158.897,158.897 105.931,158.897 105.931,476.69 158.897,476.69 158.897,344.276 300.138,344.276 300.138,476.69 353.103,476.69 353.103,158.897 "/> <g> <polygon style="fill:#FFC0CB;" points="70.617,123.586 88.272,123.586 88.272,61.793 70.617,61.793 "/> <polygon style="fill:#FFC0CB;" points="370.755,123.586 388.41,123.586 388.41,61.793 370.755,61.793 "/> </g> </g> </g>
</svg>